<?xml version="1.0" encoding="utf-8"?>
<!-- Generated by IcoMoon.io -->
<!DOCTYPE svg PUBLIC "-//W3C//DTD SVG 1.1//EN" "http://www.w3.org/Graphics/SVG/1.1/DTD/svg11.dtd">
<svg version="1.1" xmlns="http://www.w3.org/2000/svg" xmlns:xlink="http://www.w3.org/1999/xlink" width="32" height="32" viewBox="0 0 32 32">
<path fill="#444" d="M7.667 11h16.667c0.921 0 1.667-0.746 1.667-1.667s-0.746-1.667-1.667-1.667h-16.667c-0.921 0-1.667 0.746-1.667 1.667s0.746 1.667 1.667 1.667z"></path>
<path fill="#444" d="M24.333 14.333h-16.667c-0.921 0-1.667 0.746-1.667 1.667s0.746 1.667 1.667 1.667h16.667c0.921 0 1.667-0.746 1.667-1.667s-0.746-1.667-1.667-1.667z"></path>
<path fill="#444" d="M24.333 21h-16.667c-0.921 0-1.667 0.746-1.667 1.667s0.746 1.667 1.667 1.667h16.667c0.921 0 1.667-0.746 1.667-1.667s-0.746-1.667-1.667-1.667z"></path>
</svg>
